<svg width="20" height="20" viewBox="0 0 20 20" fill="none" xmlns="http://www.w3.org/2000/svg">
<path d="M18.8965 0H1.10449C0.494488 0 0.000488281 0.494 0.000488281 1.104V18.897C0.000488281 19.506 0.494488 20 1.10449 20H10.6845V12.255H8.07649V9.237H10.6825V7.01C10.6825 4.427 12.2605 3.02 14.5655 3.02C15.6695 3.02 16.6175 3.102 16.8945 3.139V5.839H15.2965C14.0425 5.839 13.8005 6.436 13.8005 7.309V9.237H16.7895L16.3995 12.255H13.7995V20H18.8975C19.5055 20 19.9995 19.506 19.9995 18.896V1.104C20.0005 0.494 19.5065 0 18.8965 0Z" fill="#2C7566"/>
</svg>
