<svg width="20" height="20" viewBox="0 0 20 20" fill="none" xmlns="http://www.w3.org/2000/svg">
<path d="M10.0005 1.802C12.6705 1.802 12.9875 1.812 14.0425 1.861C16.7525 1.984 18.0175 3.27 18.1415 5.96C18.1895 7.014 18.1985 7.33 18.1985 10C18.1985 12.672 18.1885 12.988 18.1415 14.042C18.0175 16.729 16.7545 18.017 14.0415 18.141C12.9875 18.189 12.6715 18.199 10.0005 18.199C7.3305 18.199 7.0135 18.189 5.9605 18.141C3.2425 18.017 1.9835 16.725 1.8605 14.041C1.8125 12.987 1.8025 12.671 1.8025 10C1.8025 7.33 1.8125 7.014 1.8605 5.96C1.9845 3.27 3.2475 1.983 5.9605 1.86C7.0145 1.812 7.3305 1.802 10.0005 1.802ZM10.0005 0C7.2845 0 6.9445 0.012 5.8775 0.06C2.2465 0.227 0.227496 2.242 0.0614959 5.877C0.0104959 6.944 0.000495911 7.284 0.000495911 10C0.000495911 12.716 0.0124959 13.057 0.0604959 14.123C0.227496 17.755 2.2425 19.773 5.8775 19.94C6.9445 19.988 7.2845 20 10.0005 20C12.7165 20 13.0575 19.988 14.1235 19.94C17.7525 19.773 19.7755 17.758 19.9395 14.123C19.9895 13.057 20.0005 12.716 20.0005 10C20.0005 7.284 19.9885 6.944 19.9405 5.878C19.7775 2.249 17.7605 0.228 14.1245 0.06C13.0575 0.01 12.7165 0 10.0005 0ZM10.0005 4.865C8.63861 4.865 7.3325 5.40601 6.3695 6.36901C5.4065 7.33201 4.8655 8.63811 4.8655 10C4.8655 11.3619 5.4065 12.668 6.3695 13.631C7.3325 14.594 8.63861 15.135 10.0005 15.135C11.3624 15.135 12.6685 14.594 13.6315 13.631C14.5945 12.668 15.1355 11.3619 15.1355 10C15.1355 8.63811 14.5945 7.33201 13.6315 6.36901C12.6685 5.40601 11.3624 4.865 10.0005 4.865ZM10.0005 13.333C9.11653 13.333 8.26877 12.9818 7.64371 12.3568C7.01865 11.7317 6.6675 10.884 6.6675 10C6.6675 9.11603 7.01865 8.26827 7.64371 7.64321C8.26877 7.01815 9.11653 6.667 10.0005 6.667C10.8845 6.667 11.7322 7.01815 12.3573 7.64321C12.9823 8.26827 13.3335 9.11603 13.3335 10C13.3335 10.884 12.9823 11.7317 12.3573 12.3568C11.7322 12.9818 10.8845 13.333 10.0005 13.333ZM15.3385 3.463C15.0202 3.463 14.715 3.58943 14.49 3.81447C14.2649 4.03952 14.1385 4.34474 14.1385 4.663C14.1385 4.98126 14.2649 5.28648 14.49 5.51153C14.715 5.73657 15.0202 5.863 15.3385 5.863C15.6568 5.863 15.962 5.73657 16.187 5.51153C16.4121 5.28648 16.5385 4.98126 16.5385 4.663C16.5385 4.34474 16.4121 4.03952 16.187 3.81447C15.962 3.58943 15.6568 3.463 15.3385 3.463Z" fill="#2C7566"/>
</svg>
