<svg width="124" height="24" viewBox="0 0 124 24" fill="none" xmlns="http://www.w3.org/2000/svg">
<path d="M6.039 18.708C7.677 18.708 9.034 18.348 10.109 17.628C11.184 16.907 11.722 15.859 11.722 14.484C11.639 12.629 10.258 11.238 7.578 10.311L6.138 9.714C5.824 9.614 5.6 9.516 5.468 9.416C5.407 9.37477 5.35705 9.3192 5.32253 9.25417C5.28801 9.18914 5.26997 9.11663 5.27 9.043C5.27 8.629 5.543 8.423 6.089 8.423C6.767 8.423 7.271 8.77 7.602 9.466L11.3 8.422C10.407 6.202 8.686 5.093 6.138 5.093C4.616 5.093 3.35 5.491 2.341 6.286C1.332 7.08 0.826999 8.116 0.826999 9.39C0.826999 9.788 0.884999 10.156 1.001 10.496C1.117 10.836 1.291 11.134 1.522 11.39C1.754 11.647 1.977 11.87 2.192 12.061C2.407 12.251 2.68 12.43 3.012 12.595C3.342 12.761 3.594 12.881 3.768 12.955C3.942 13.03 4.178 13.117 4.475 13.216L4.897 13.366L6.387 13.912C6.75 14.045 6.987 14.156 7.094 14.247C7.14628 14.2909 7.18787 14.3461 7.21559 14.4085C7.24332 14.4709 7.25645 14.5388 7.254 14.607C7.254 15.038 6.85 15.254 6.039 15.254C4.848 15.254 4.136 14.724 3.905 13.664L0.181999 14.509C0.644999 17.309 2.598 18.708 6.039 18.708ZM17.675 18.708C19.313 18.708 20.52 18.078 21.298 16.82V18.435H26.41V5.366H21.298V12.522C21.298 13.996 20.793 14.732 19.784 14.732C18.758 14.732 18.245 13.996 18.245 12.522V5.366H13.133V13.019C13.133 16.812 14.647 18.708 17.675 18.708ZM33.778 18.435V11.28C33.778 9.805 34.282 9.068 35.291 9.068C36.317 9.068 36.831 9.805 36.831 11.28V18.435H41.942V10.783C41.942 6.99 40.429 5.093 37.401 5.093C35.763 5.093 34.555 5.723 33.778 6.981V5.366H28.665V18.435H33.778ZM49.161 18.435V11.28C49.161 9.805 49.665 9.068 50.675 9.068C51.7 9.068 52.213 9.805 52.213 11.28V18.435H57.326V10.783C57.326 6.99 55.812 5.093 52.784 5.093C51.146 5.093 49.938 5.723 49.161 6.981V5.366H44.048V18.435H49.161ZM65.14 24L73.429 5.366H68.092L65.56 12.05L63.302 5.366H57.718L63.153 17.168L60.126 24H65.14ZM78.81 18.708C80.448 18.708 81.805 18.348 82.88 17.628C83.956 16.907 84.494 15.859 84.494 14.484C84.411 12.629 83.029 11.238 80.349 10.311L78.909 9.714C78.595 9.614 78.372 9.516 78.239 9.416C78.178 9.37477 78.1281 9.3192 78.0935 9.25417C78.059 9.18914 78.041 9.11663 78.041 9.043C78.041 8.629 78.314 8.423 78.86 8.423C79.538 8.423 80.043 8.77 80.374 9.466L84.072 8.422C83.178 6.202 81.458 5.093 78.91 5.093C77.388 5.093 76.122 5.491 75.113 6.286C74.103 7.081 73.599 8.116 73.599 9.391C73.599 9.789 73.657 10.157 73.772 10.497C73.888 10.837 74.062 11.135 74.294 11.391C74.525 11.648 74.749 11.871 74.964 12.062C75.179 12.252 75.452 12.431 75.783 12.596C76.113 12.762 76.366 12.882 76.54 12.956C76.713 13.031 76.95 13.118 77.247 13.217L77.669 13.367L79.158 13.913C79.522 14.046 79.758 14.157 79.865 14.248C79.9175 14.2918 79.9592 14.347 79.9871 14.4094C80.015 14.4718 80.0283 14.5397 80.026 14.608C80.026 15.039 79.621 15.255 78.81 15.255C77.62 15.255 76.908 14.725 76.676 13.665L72.953 14.509C73.417 17.309 75.369 18.708 78.81 18.708ZM88.61 4.571C89.52 4.571 90.223 4.356 90.72 3.925C91.215 3.495 91.464 2.948 91.464 2.285C91.464 1.607 91.224 1.055 90.744 0.634C90.264 0.21 89.553 0 88.61 0C87.667 0 86.955 0.211 86.475 0.634C85.995 1.056 85.755 1.607 85.755 2.286C85.755 2.948 86.004 3.495 86.5 3.926C86.997 4.356 87.7 4.571 88.61 4.571ZM91.166 18.435V5.366H86.052V18.435H91.166ZM98.906 18.708C100.643 18.708 101.883 18.078 102.628 16.82V18.435H107.74V0.472H102.628V7.006C101.883 5.731 100.643 5.093 98.905 5.093C97.152 5.093 95.691 5.735 94.525 7.019C93.359 8.302 92.775 9.929 92.775 11.901C92.775 13.871 93.359 15.499 94.525 16.783C95.691 18.066 97.153 18.708 98.906 18.708ZM100.296 14.808C99.567 14.808 98.984 14.534 98.546 13.988C98.107 13.441 97.888 12.745 97.888 11.901C97.888 11.056 98.103 10.361 98.533 9.814C98.98 9.267 99.567 8.994 100.295 8.994C101.023 8.994 101.606 9.267 102.045 9.814C102.483 10.36 102.702 11.056 102.702 11.901C102.702 12.745 102.483 13.441 102.045 13.988C101.606 14.534 101.024 14.808 100.296 14.808ZM116.994 18.708C119.591 18.708 121.618 17.954 123.074 16.448L120.964 13.615C119.922 14.46 118.747 14.882 117.44 14.882C116.448 14.882 115.641 14.658 115.02 14.212C114.4 13.764 114.09 13.333 114.09 12.919H123.694C123.777 12.621 123.818 12.232 123.818 11.752C123.818 9.698 123.144 8.075 121.796 6.882C120.447 5.689 118.723 5.093 116.621 5.093C114.371 5.093 112.593 5.764 111.286 7.106C109.979 8.447 109.325 10.062 109.325 11.95C109.325 13.888 110.015 15.499 111.397 16.783C112.779 18.066 114.644 18.708 116.994 18.708ZM119.202 10.559H114.09C114.123 9.946 114.388 9.479 114.884 9.155C115.38 8.832 115.968 8.671 116.646 8.671C117.324 8.671 117.912 8.836 118.408 9.168C118.905 9.499 119.169 9.963 119.202 10.559Z" fill="#2C7566"/>
</svg>
