<svg width="20" height="20" viewBox="0 0 20 20" fill="none" xmlns="http://www.w3.org/2000/svg">
<path d="M10.0005 0C4.4775 0 0.000495911 4.477 0.000495911 10C0.000495911 14.237 2.6365 17.855 6.3565 19.312C6.2685 18.521 6.1895 17.307 6.3915 16.444C6.5725 15.664 7.5635 11.474 7.5635 11.474C7.5635 11.474 7.2645 10.874 7.2645 9.988C7.2645 8.598 8.0705 7.56 9.0745 7.56C9.9265 7.56 10.3385 8.2 10.3385 8.968C10.3385 9.826 9.7925 11.108 9.5105 12.298C9.2745 13.293 10.0105 14.105 10.9905 14.105C12.7685 14.105 14.1345 12.231 14.1345 9.525C14.1345 7.132 12.4145 5.457 9.9585 5.457C7.1135 5.457 5.4425 7.592 5.4425 9.797C5.4425 10.656 5.7735 11.578 6.1875 12.078C6.22293 12.1159 6.24792 12.1624 6.26001 12.2129C6.27211 12.2634 6.27089 12.3161 6.2565 12.366L5.9785 13.499C5.9345 13.682 5.8335 13.722 5.6435 13.633C4.3945 13.052 3.6135 11.226 3.6135 9.759C3.6135 6.605 5.9055 3.707 10.2215 3.707C13.6905 3.707 16.3865 6.18 16.3865 9.483C16.3865 12.93 14.2135 15.703 11.1965 15.703C10.1835 15.703 9.2315 15.178 8.9055 14.555L8.2825 16.933C8.0565 17.802 7.4475 18.891 7.0385 19.554C7.9755 19.844 8.9695 20 10.0005 20C15.5235 20 20.0005 15.523 20.0005 10C20.0005 4.477 15.5235 0 10.0005 0Z" fill="#2C7566"/>
</svg>
