<svg width="20" height="18" viewBox="0 0 20 18" fill="none" xmlns="http://www.w3.org/2000/svg">
<path d="M20.0005 2.79754C19.2515 3.12951 18.457 3.34727 17.6435 3.44354C18.501 2.93134 19.1426 2.1244 19.4485 1.17354C18.6429 1.6516 17.7616 1.98845 16.8425 2.16954C16.4587 1.75981 15.9948 1.43333 15.4796 1.21039C14.9644 0.987444 14.4089 0.872788 13.8475 0.873539C11.1975 0.873539 9.25149 3.34554 9.84949 5.91054C8.2182 5.82915 6.62227 5.4056 5.16531 4.66738C3.70834 3.92917 2.42292 2.89279 1.39249 1.62554C0.868232 2.52901 0.707744 3.59824 0.943654 4.61581C1.17957 5.63338 1.79416 6.52292 2.66249 7.10354C2.01111 7.08316 1.37405 6.90726 0.804488 6.59054C0.759488 8.49054 2.12249 10.2695 4.09549 10.6655C3.4912 10.8296 2.85743 10.8536 2.24249 10.7355C2.5045 11.5508 3.01487 12.2638 3.70217 12.7746C4.38946 13.2855 5.21928 13.5687 6.07549 13.5845C4.3555 14.9333 2.1706 15.5443 0.000488281 15.2835C1.87677 16.4889 4.06038 17.1287 6.29049 17.1265C13.9085 17.1265 18.2135 10.6925 17.9535 4.92154C18.7564 4.34057 19.4495 3.62136 20.0005 2.79754Z" fill="#2C7566"/>
</svg>
